<svg width="425" height="423" viewBox="0 0 425 423" fill="none" xmlns="http://www.w3.org/2000/svg">
<rect x="42" width="353" height="423" rx="24" fill="#E2F2F3"/>
<path d="M357.697 146.642C354.742 147.54 351.854 149.953 350.525 152.644C349.496 154.717 349.496 159.048 350.525 161.121C351.521 163.163 354.012 165.545 356.236 166.535C357.863 167.278 358.494 167.402 361.084 167.402C363.441 167.402 364.404 167.247 365.633 166.721C367.857 165.793 370.381 163.472 371.443 161.4C372.24 159.915 372.34 159.296 372.34 156.883C372.34 154.47 372.24 153.851 371.443 152.366C370.381 150.293 367.824 147.973 365.666 147.076C363.74 146.271 359.623 146.055 357.697 146.642Z" fill="#040404"/>
<path d="M63.1856 153.047C57.0762 155.243 54.2207 162.266 57.209 167.742C60.7285 174.208 69.959 175.631 75.3711 170.557C80.1523 166.133 79.9531 159.203 74.9395 155.027C71.918 152.459 67.0703 151.654 63.1856 153.047Z" fill="#040404"/>
<path d="M215.721 156.078C214.957 156.728 206.557 161.369 196.895 166.443L179.463 175.662L175.146 174.455C171.926 173.558 170.598 173.063 169.867 172.383C167.709 170.433 163.459 169.598 161.533 170.774C159.309 172.135 158.678 175.105 160.238 176.838C161.998 178.756 164.92 179.622 167.676 179.003C169.07 178.694 169.701 178.725 171.66 179.158C172.955 179.436 174.084 179.808 174.184 179.962C174.283 180.117 174.516 180.179 174.682 180.086C174.848 179.962 174.98 180.024 174.98 180.21C174.98 180.364 174.682 180.612 174.316 180.705C173.818 180.859 173.652 181.169 173.652 182.035C173.652 183.86 174.582 189.274 175.312 191.966C175.678 193.327 175.977 194.658 175.977 194.936C175.977 195.555 173.021 199.113 171.76 200.01C171.162 200.474 170.631 200.598 169.9 200.474C167.875 200.133 162.131 197.287 156.719 193.946C145.596 187.078 143.703 186.335 137.295 186.335C132.215 186.304 129.127 187.171 125.109 189.708C122.719 191.223 122.32 191.378 121.623 191.1C120.461 190.605 116.941 190.698 114.85 191.254C105.719 193.76 93.2344 205.455 89.9473 214.581C89.2168 216.623 88.9844 220.49 89.4492 221.944C89.8809 223.151 88.6191 222.749 85.6641 220.738C80.6504 217.335 75.9688 212.23 73.2461 207.311C71.6855 204.465 71.7188 204.681 69.2285 191.811L67.1035 180.736L65.8086 179.003C65.0781 178.075 63.8164 176.899 62.9531 176.404C61.625 175.631 61.0605 175.476 59.3008 175.507C55.7148 175.538 53.0586 176.559 44.7246 181.231C32.8379 187.851 26.3301 193.698 20.752 202.856L18.5605 206.383L18.627 211.054C18.6934 213.591 18.5938 215.85 18.4609 216.066C18.2949 216.314 17.2324 216.438 15.4395 216.438C8.13477 216.438 3.1875 220.831 1.19531 229.122C0.232422 233.175 0 234.474 0 235.866C0 237.97 1.49414 244.374 2.35742 246.076C3.2207 247.715 8.06836 252.325 9.72852 253.067C12.9824 254.491 18.3281 254.893 22.6777 254.027C24.8691 253.593 25.0352 253.501 28.7539 250.314C30.8457 248.489 32.7383 247.066 32.9375 247.127C33.1367 247.189 33.9668 248.272 34.7969 249.51C35.8926 251.211 36.2578 252.047 36.2246 253.037C36.2246 253.748 34.6641 266.773 32.7383 281.994C30.8125 297.215 29.252 309.683 29.3184 309.745C29.3516 309.776 31.4434 311.013 33.9668 312.498C36.623 314.076 38.6816 315.097 38.8477 314.942C39.0137 314.788 41.3047 306.589 43.9941 296.72C52.6934 264.669 52.3281 265.968 53.0918 266.711C53.8555 267.484 63.75 279.272 64.0156 279.767C64.2812 280.2 72.2832 309.312 72.9805 312.282C73.0469 312.684 73.3457 313.086 73.6113 313.179C73.877 313.272 76.3008 312.808 79.0234 312.189C83.0078 311.23 84.0039 310.89 84.0039 310.457C84.0039 310.178 82.8086 302.784 81.3145 294.06C79.8535 285.304 78.5918 277.601 78.5254 276.92C78.4258 276.24 78.0605 274.074 77.6953 272.094C77.0312 268.567 76.9648 268.412 70.5898 256.007C66.5723 248.241 64.248 243.384 64.4473 243.229C64.7129 242.951 75.6699 243.322 96.4551 244.281C99.7422 244.436 106.184 244.714 110.732 244.931C116.111 245.147 119.166 245.395 119.398 245.612C119.664 245.859 119.697 246.509 119.498 247.684C119.365 248.612 119.133 252.016 119 255.264C118.701 263.122 119.564 268.536 122.387 276.518L123.217 278.9L122.387 281.066C121.922 282.242 121.457 283.974 121.324 284.871C121.225 285.768 120.826 287.099 120.494 287.779C119.199 290.347 118.801 293.255 118.801 300.123C118.801 307.208 119.266 310.766 120.76 315.283C121.822 318.377 122.852 320.295 124.08 321.377C126.006 323.11 129.891 324.069 130.787 323.079C130.986 322.832 131.285 321.687 131.451 320.511C131.65 319.336 132.148 316.211 132.613 313.581C133.975 305.537 134.24 303.093 134.207 298.112C134.174 294.555 134.041 292.729 133.576 290.997C133.012 288.893 133.012 288.491 133.41 286.728C133.842 284.995 133.842 284.531 133.344 282.675C132.812 280.633 132.812 280.602 133.609 278.746C134.572 276.518 135.568 272.96 136.266 269.217C137.029 265.071 137.195 265.133 138.092 269.774C138.457 271.599 139.154 274.445 139.652 276.054L140.549 278.993L139.752 280.447C139.055 281.685 138.955 282.334 138.922 285.428C138.889 287.779 138.656 289.667 138.258 290.997C137.229 294.493 137.494 300.402 139.088 310.704C139.852 315.499 140.449 319.985 140.449 320.666C140.449 321.347 140.615 322.275 140.781 322.739C141.113 323.512 141.246 323.543 142.74 323.419C144.965 323.203 147.289 322.089 148.285 320.728C149.48 319.057 150.941 315.345 151.771 311.694C152.436 308.848 152.535 307.579 152.535 300.742C152.568 295.297 152.436 292.358 152.104 290.749L151.639 288.522L153 287.439C158.445 283.077 161.135 281.066 161.467 281.19C161.633 281.221 162.695 284.067 163.758 287.47C166.082 294.926 165.949 294.586 166.348 294.214C166.547 294.029 165.949 291.739 164.854 288.243C163.857 285.119 163.027 282.458 163.027 282.303C163.027 281.561 164.455 282.52 171.66 288.213C175.943 291.616 179.662 294.4 179.895 294.4C180.127 294.4 180.227 294.276 180.127 294.091C180.027 293.936 176.01 290.718 171.229 286.944C166.447 283.17 162.396 279.798 162.264 279.426C161.832 278.343 162.131 224.883 162.596 224.45C162.895 224.172 163.525 224.172 165.252 224.481C173.686 225.843 181.688 225.255 184.875 223.027C188.793 220.274 186.934 216.004 179.928 211.735C178.5 210.869 177.305 210.064 177.305 209.941C177.305 209.848 178.135 209.013 179.164 208.084C180.16 207.156 181.754 205.517 182.684 204.434C183.646 203.382 184.643 202.516 184.941 202.516C185.24 202.516 186.436 202.856 187.598 203.289C188.793 203.722 191.316 204.496 193.209 204.991C195.135 205.517 196.828 206.104 196.961 206.321C197.094 206.507 197.227 207.775 197.227 209.136C197.227 212.044 197.957 216.84 199.086 221.635C199.551 223.584 199.816 225.255 199.717 225.348C199.584 225.471 197.891 225.873 195.965 226.214C192.014 226.956 189.092 227.884 187.797 228.843L186.934 229.462V236.578C186.934 243.044 186.867 243.786 186.27 244.869C184.676 247.777 184.643 252.789 186.137 261.266C186.867 265.381 189.922 277.818 190.32 278.158C190.453 278.282 200.182 279.859 200.846 279.859C201.078 279.859 201.211 275.497 201.277 265.288L201.377 250.716L202.174 250.128C202.805 249.633 203.502 249.541 206.324 249.541C208.516 249.541 209.844 249.664 210.109 249.912C210.408 250.19 210.508 254.305 210.508 266.587C210.508 275.559 210.408 283.139 210.309 283.417C210.176 283.696 206.059 285.799 201.145 288.089C196.23 290.378 192.312 292.389 192.412 292.544C192.512 292.698 196.496 291.028 201.211 288.831C205.959 286.604 210.076 284.809 210.342 284.809C210.641 284.809 211.604 286.263 212.832 288.522C213.928 290.564 214.99 292.234 215.156 292.234C215.654 292.234 215.621 292.142 213.994 289.141C212.5 286.387 212.201 285.428 212.832 285.428C212.998 285.428 216.65 287.068 220.934 289.048C225.217 291.059 228.869 292.544 229.002 292.42C229.135 292.265 229.135 292.08 228.936 292.018C228.77 291.956 224.719 290.069 219.971 287.81L211.338 283.727V266.711V249.695L217.148 249.602C220.336 249.572 223.258 249.602 223.656 249.664C224.021 249.757 224.486 250.159 224.686 250.531C224.852 250.933 226.412 257.584 228.105 265.319C229.799 273.053 231.293 279.519 231.459 279.674C231.658 279.89 241.984 278.467 242.316 278.158C242.482 278.003 241.553 263.988 240.855 256.502C240.059 247.684 239.627 245.488 238.232 243.167L237.037 241.126L237.07 235.371L237.137 229.586L236.107 228.782C235.543 228.348 234.115 227.668 232.92 227.297C231.725 226.894 230.762 226.399 230.762 226.183C230.762 225.935 231.061 224.605 231.426 223.182C232.455 219.16 233.385 213.932 233.617 210.621C233.75 208.982 233.982 207.435 234.182 207.218C234.414 206.971 235.742 206.847 238.73 206.847C242.316 206.847 243.014 206.94 243.445 207.373C243.711 207.682 245.238 210.931 246.832 214.581C248.426 218.232 249.854 221.357 249.986 221.48C250.119 221.604 251.846 221.326 253.771 220.862C257.922 219.872 257.623 220.428 256.826 214.829C255.863 208.023 254.17 203.815 251.58 201.711C248.459 199.236 240.557 196.266 233.119 194.781C230.463 194.255 229.201 193.822 227.674 192.894C223.723 190.512 220.004 189.677 214.26 189.893C209.578 190.079 206.756 190.821 203.369 192.739L201.045 194.07L197.061 193.822C194.869 193.698 192.678 193.575 192.18 193.575C191.084 193.544 190.984 192.987 191.814 191.657C192.379 190.759 192.379 190.698 191.748 189.584C190.42 187.263 186.037 185.469 184.078 186.459C183.58 186.676 183.148 186.738 182.982 186.552C182.484 186.026 181.588 182.004 181.92 181.695C182.086 181.54 184.477 181.88 188.295 182.716C194.172 183.953 194.438 183.984 195.5 183.489C196.529 183.056 196.629 182.901 196.43 182.035C196.131 180.612 195.799 180.395 192.645 179.467C191.051 179.034 188.062 178.168 186.037 177.58C183.746 176.93 182.285 176.343 182.285 176.095C182.285 175.538 214.492 157.935 216.584 157.347C218.477 156.821 219.174 156.109 218.51 155.367C217.846 154.624 217.248 154.748 215.721 156.078ZM36.3906 204.619C34.8301 208.858 33.668 215.262 33.4355 220.738C33.4023 221.852 33.2031 222.78 33.0371 222.842C32.8379 222.903 32.207 222.037 31.6094 220.923C30.8457 219.5 30.2148 218.727 29.252 218.17L27.957 217.397L27.7246 214.519C27.293 208.951 27.0938 209.384 32.1738 205.362C34.7305 203.351 36.7227 201.959 36.8887 202.113C37.0547 202.268 36.8555 203.351 36.3906 204.619ZM120.395 205.022C120.527 205.238 120.727 206.847 120.859 208.672C121.025 210.467 121.391 213.684 121.723 215.819C122.221 219.284 122.254 220.15 121.855 224.172C121.623 226.647 121.357 230.452 121.225 232.68L121.025 236.671L119.531 236.949C118.734 237.104 116.842 237.135 115.348 237.011L112.625 236.794L111.463 235.217C110.832 234.319 108.441 231.38 106.117 228.658C101.17 222.842 100.107 221.078 100.373 219.036C100.805 215.324 108.939 207.806 115.049 205.455C117.141 204.65 119.996 204.434 120.395 205.022ZM70.2246 221.666L73.2129 224.853L82.8418 230.05C88.1211 232.896 92.5039 235.402 92.5703 235.619C92.7031 235.928 91.5742 235.959 87.125 235.773C71.9844 235.186 64.7461 234.783 64.5469 234.598C64.4141 234.474 64.5469 233.051 64.8789 231.442C65.1777 229.833 65.5762 226.523 65.7754 224.079C66.207 218.851 66.3066 218.201 66.8379 218.387C67.0371 218.448 68.5645 219.933 70.2246 221.666ZM157.516 222.749C159.143 223.182 160.67 223.708 160.936 223.893C161.301 224.172 161.367 229.246 161.367 252.047V279.828L156.652 283.541C154.062 285.614 151.838 287.284 151.672 287.284C151.539 287.284 151.406 286.294 151.406 285.088C151.406 283.912 151.24 282.303 151.041 281.561C150.709 280.323 150.775 279.89 151.871 276.858C154.859 268.413 155.557 264.081 155.291 255.728C155.059 249.355 154.727 246.54 153.83 243.508C153.199 241.249 153.199 240.971 153.797 238.403C154.295 236.361 154.262 234.691 153.531 224.976C153.299 221.759 153.332 221.604 153.93 221.759C154.262 221.852 155.889 222.316 157.516 222.749ZM96.7207 233.732C97.584 234.722 98.2812 235.712 98.2812 235.897C98.2812 236.299 94.0312 236.361 93.334 235.959C92.9688 235.743 92.9688 235.433 93.4668 234.041C93.7988 233.113 94.1309 232.278 94.1973 232.123C94.5293 231.597 95.2266 232.03 96.7207 233.732Z" fill="#040404"/>
<path d="M140.051 161.214C134.406 163.163 130.588 169.846 131.783 175.755C132.314 178.477 133.377 180.426 135.303 182.066C137.328 183.798 138.789 184.355 141.479 184.355C149.945 184.355 155.988 174.177 152.203 166.319C151.141 164.091 148.484 161.678 146.525 161.121C144.766 160.626 141.611 160.688 140.051 161.214Z" fill="#040404"/>
<path d="M211.604 166.009C208.781 166.876 205.992 169.289 204.697 171.949C203.9 173.558 203.734 174.332 203.734 176.373C203.734 178.508 203.867 179.158 204.764 180.859C205.959 183.273 208.018 185.222 210.508 186.366C212.102 187.109 212.732 187.202 215.488 187.202C218.311 187.202 218.842 187.109 220.568 186.273C223.059 185.129 225.516 182.623 226.412 180.395C227.342 178.075 227.342 174.672 226.412 172.383C226.047 171.454 225.084 169.969 224.254 169.134C221.1 165.855 216.119 164.648 211.604 166.009Z" fill="#040404"/>
<path d="M366.396 169.846C364.902 170.464 363.441 171.733 362.312 173.373C361.416 174.672 361.117 175.94 359.125 186.212C357.73 193.451 356.635 198.277 356.104 199.453C355.141 201.68 353.016 204.991 352.584 204.991C352.385 204.991 346.773 202.361 340.066 199.113L327.848 193.234L321.771 188.253C318.418 185.5 315.596 183.396 315.43 183.52C315.264 183.675 314.002 185.84 312.641 188.315L310.084 192.863L311.512 193.637C312.309 194.039 317.521 196.576 323.166 199.267C328.844 201.959 333.359 204.31 333.359 204.558C333.359 204.774 333.127 205.083 332.861 205.238C332.396 205.455 332.529 206.012 333.857 209.322C334.688 211.457 335.518 213.313 335.684 213.468C335.883 213.653 340.398 214.86 345.744 216.19L355.439 218.603L356.668 217.366C357.365 216.685 358.029 216.128 358.162 216.128C358.295 216.128 359.324 216.592 360.42 217.149C362.312 218.077 362.412 218.232 362.645 219.531C362.777 220.305 363.176 222.594 363.541 224.636C363.873 226.678 364.504 229.803 364.936 231.597L365.666 234.845L358.527 248.767C354.111 257.337 351.289 263.215 351.123 264.081C351.023 264.855 349.43 274.291 347.604 285.088C345.811 295.885 344.383 304.764 344.449 304.826C344.781 305.166 354.809 307.332 355.041 307.115C355.174 306.992 357.299 299.474 359.756 290.409C362.213 281.375 364.338 273.796 364.471 273.579C365.168 272.465 375.627 260.369 375.859 260.369C376.258 260.369 376.391 260.802 382.965 285.119C389.904 310.611 389.406 308.941 389.871 308.941C390.436 308.941 398.803 303.96 399.002 303.496C399.102 303.279 397.707 291.523 395.914 277.384C394.154 263.277 392.76 251.613 392.893 251.521C392.992 251.397 394.188 251.799 395.516 252.418C398.504 253.81 402.057 254.614 403.883 254.336C406.439 253.934 409.561 253.16 411.32 252.449C414.707 251.057 418.824 246.633 421.514 241.466C422.975 238.62 425 232.154 425 230.236C425 229.122 423.805 225.317 422.941 223.77C421.414 220.923 418.26 218.634 413.146 216.623C411.553 215.973 410.059 215.293 409.859 215.076C409.561 214.829 409.527 212.818 409.727 207.775L409.959 200.814L408.697 198.463C405.477 192.43 399.4 185.531 393.623 181.323C387.945 177.209 377.553 171.423 373.535 170.155C370.879 169.32 367.99 169.196 366.396 169.846ZM396.213 199.205C398.438 200.969 400.43 202.608 400.662 202.856C400.961 203.196 400.961 204.619 400.729 208.703C400.562 211.673 400.33 214.427 400.23 214.798C400.064 215.571 397.043 217.366 395.914 217.366C395.283 217.366 395.217 217.087 394.852 212.478C394.42 207.28 393.59 202.98 392.295 199.174C391.365 196.514 391.299 196.019 391.83 196.019C392.029 196.019 394.021 197.473 396.213 199.205ZM344.648 209.631C346.906 210.683 347.271 211.364 345.479 211.085C343.818 210.838 340.996 208.703 342.324 208.703C342.523 208.703 343.553 209.136 344.648 209.631Z" fill="#040404"/>
<path d="M298.496 212.539C297.633 212.973 287.971 215.448 275.586 218.448C263.799 221.264 253.605 223.739 252.908 223.893C251.879 224.141 251.646 224.327 251.746 224.883C251.812 225.378 252.045 225.533 252.51 225.471C252.875 225.409 263.102 222.78 275.254 219.655C290.162 215.819 297.865 213.963 298.994 213.963C301.02 213.963 301.584 213.653 301.418 212.694C301.285 211.704 300.322 211.642 298.496 212.539Z" fill="#040404"/>
<path d="M271.436 225.131C265.791 225.348 261.707 225.781 257.656 226.523C252.609 227.451 248.426 229.06 247.695 230.359C247.496 230.731 247.363 239.548 247.363 255.883V280.849L248.359 281.716C249.322 282.551 252.543 283.788 255.598 284.5C256.627 284.747 257.092 285.057 257.324 285.614C257.656 286.418 258.32 286.635 258.32 285.923C258.32 285.676 258.453 285.366 258.652 285.273C259.084 285.026 261.641 285.676 261.641 286.047C261.641 286.232 264.297 286.356 268.381 286.356C273.295 286.356 275.287 286.449 275.686 286.758C276.217 287.099 276.25 287.872 276.184 295.607L276.084 304.083L278.408 306.187C280.898 308.446 281.928 308.879 279.637 306.682C278.873 305.94 278.242 305.166 278.242 304.919C278.242 304.64 277.943 304.269 277.578 304.052C276.947 303.681 276.914 303.341 276.914 295.328C276.914 287.408 276.947 286.975 277.545 286.666C277.943 286.48 281.131 286.356 285.58 286.356C291.955 286.356 293.051 286.294 293.582 285.861C294.113 285.366 294.18 285.366 294.379 285.861C294.645 286.542 295.408 286.48 295.807 285.768C296.039 285.366 297.068 284.995 299.227 284.5C300.92 284.129 303.211 283.417 304.307 282.953C307.826 281.468 307.461 284.376 307.461 255.728C307.461 230.576 307.461 230.576 306.764 229.864C304.605 227.73 295.375 225.688 285.879 225.255C278.109 224.914 276.648 224.914 271.436 225.131Z" fill="#040404"/>
</svg>
