<svg width="357" height="43" viewBox="0 0 357 43" fill="none" xmlns="http://www.w3.org/2000/svg">
<path d="M6.096 39.224H28.368V43H0.4V3.192H27.472V6.968H6.096V20.728H24.848V24.504H6.096V39.224ZM58.5065 37.304V31.416C58.5065 30.6053 58.3785 30.072 58.1225 29.816C57.9092 29.56 57.3758 29.432 56.5225 29.432H41.7385C38.3678 29.432 36.6825 27.7467 36.6825 24.376V17.016C36.6825 13.6453 38.3678 11.96 41.7385 11.96H58.7625C62.1332 11.96 63.8185 13.6453 63.8185 17.016V20.344H58.4425V17.656C58.4425 16.8027 58.3145 16.2693 58.0585 16.056C57.8025 15.8 57.2692 15.672 56.4585 15.672H44.1065C43.2532 15.672 42.6985 15.8 42.4425 16.056C42.2292 16.2693 42.1225 16.8027 42.1225 17.656V23.672C42.1225 24.5253 42.2292 25.08 42.4425 25.336C42.6985 25.5493 43.2532 25.656 44.1065 25.656H58.8905C62.2612 25.656 63.9465 27.3413 63.9465 30.712V37.944C63.9465 41.3147 62.2612 43 58.8905 43H41.8665C38.4958 43 36.8105 41.3147 36.8105 37.944V34.616H42.2505V37.304C42.2505 38.1147 42.3572 38.648 42.5705 38.904C42.8265 39.16 43.3812 39.288 44.2345 39.288H56.5225C57.3758 39.288 57.9092 39.16 58.1225 38.904C58.3785 38.648 58.5065 38.1147 58.5065 37.304ZM89.3015 15.736H81.4935V36.92C81.4935 37.7307 81.6215 38.264 81.8775 38.52C82.1335 38.776 82.6668 38.904 83.4775 38.904H89.2375V43H81.0455C77.6748 43 75.9895 41.3147 75.9895 37.944V15.736H70.9975V11.96H75.9895V6.584H81.4935V11.96H89.3015V15.736ZM108.131 11.96H114.787V15.864H107.299C104.526 15.864 103.139 17.464 103.139 20.664V43H97.635V11.96H103.139V15.864C103.822 13.2613 105.486 11.96 108.131 11.96ZM144.558 37.24V17.72C144.558 16.9093 144.43 16.376 144.174 16.12C143.96 15.864 143.427 15.736 142.574 15.736H127.982C127.128 15.736 126.574 15.864 126.318 16.12C126.104 16.376 125.998 16.9093 125.998 17.72V37.24C125.998 38.0933 126.104 38.648 126.318 38.904C126.574 39.1173 127.128 39.224 127.982 39.224H142.574C143.427 39.224 143.96 39.1173 144.174 38.904C144.43 38.648 144.558 38.0933 144.558 37.24ZM125.614 11.96H144.942C148.312 11.96 149.998 13.6453 149.998 17.016V37.944C149.998 41.3147 148.312 43 144.942 43H125.614C122.243 43 120.558 41.3147 120.558 37.944V17.016C120.558 13.6453 122.243 11.96 125.614 11.96ZM183.952 43H179.088V3.192H185.168L199.952 29.496L215.376 3.192H221.456V43H216.592V10.36L202.576 34.36H197.456L183.952 10.36V43ZM256.739 11.96H262.243V43H256.739V40.952C256.184 42.3173 255.011 43 253.219 43H238.051C234.68 43 232.995 41.3147 232.995 37.944V11.96H238.499V37.24C238.499 38.0933 238.627 38.648 238.883 38.904C239.139 39.1173 239.672 39.224 240.483 39.224H254.563C255.331 39.224 255.886 39.0533 256.227 38.712C256.568 38.3707 256.739 37.7947 256.739 36.984V11.96ZM294.944 37.304V31.416C294.944 30.6053 294.816 30.072 294.56 29.816C294.347 29.56 293.813 29.432 292.96 29.432H278.176C274.805 29.432 273.12 27.7467 273.12 24.376V17.016C273.12 13.6453 274.805 11.96 278.176 11.96H295.2C298.571 11.96 300.256 13.6453 300.256 17.016V20.344H294.88V17.656C294.88 16.8027 294.752 16.2693 294.496 16.056C294.24 15.8 293.707 15.672 292.896 15.672H280.544C279.691 15.672 279.136 15.8 278.88 16.056C278.667 16.2693 278.56 16.8027 278.56 17.656V23.672C278.56 24.5253 278.667 25.08 278.88 25.336C279.136 25.5493 279.691 25.656 280.544 25.656H295.328C298.699 25.656 300.384 27.3413 300.384 30.712V37.944C300.384 41.3147 298.699 43 295.328 43H278.304C274.933 43 273.248 41.3147 273.248 37.944V34.616H278.688V37.304C278.688 38.1147 278.795 38.648 279.008 38.904C279.264 39.16 279.819 39.288 280.672 39.288H292.96C293.813 39.288 294.347 39.16 294.56 38.904C294.816 38.648 294.944 38.1147 294.944 37.304ZM316.779 43H311.275V11.96H316.779V43ZM311.147 5.624V0.119999H316.971V5.624H311.147ZM356.852 22.072H351.348V17.72C351.348 16.9093 351.22 16.376 350.964 16.12C350.708 15.864 350.174 15.736 349.364 15.736H335.796C334.985 15.736 334.452 15.864 334.196 16.12C333.94 16.376 333.812 16.9093 333.812 17.72V37.24C333.812 38.0933 333.94 38.648 334.196 38.904C334.452 39.1173 334.985 39.224 335.796 39.224H349.364C350.174 39.224 350.708 39.1173 350.964 38.904C351.22 38.648 351.348 38.0933 351.348 37.24V32.888H356.852V37.944C356.852 41.3147 355.166 43 351.796 43H333.364C329.993 43 328.308 41.3147 328.308 37.944V17.016C328.308 13.6453 329.993 11.96 333.364 11.96H351.796C355.166 11.96 356.852 13.6453 356.852 17.016V22.072Z" fill="black" fill-opacity="0.67"/>
</svg>
