<svg width="182" height="71" viewBox="0 0 182 71" fill="none" xmlns="http://www.w3.org/2000/svg">
<path d="M36.72 27.64C36.8 27.8 36.88 27.92 36.96 28C37.04 28 37.08 28.08 37.08 28.24C37.08 28.72 36.08 29.64 34.08 31C32.08 32.28 29.6 33.76 26.64 35.44C23.68 37.04 20.56 38.68 17.28 40.36C14 41.96 11.08 43.28 8.52 44.32C8.52 44.48 8.44 45 8.28 45.88C8.12 46.76 8.04 47.32 8.04 47.56V49.84C8.04 51.68 8.32 53.52 8.88 55.36C9.44 57.12 10.28 58.72 11.4 60.16C12.6 61.6 14.04 62.76 15.72 63.64C17.4 64.52 19.36 64.96 21.6 64.96C22.56 64.96 23.72 64.8 25.08 64.48C26.52 64.08 27.88 63.56 29.16 62.92C30.52 62.2 31.72 61.36 32.76 60.4C33.8 59.44 34.44 58.36 34.68 57.16C35.64 57.24 36.2 57.52 36.36 58C36.6 58.48 36.72 58.8 36.72 58.96C36.72 61.04 36.2 62.84 35.16 64.36C34.2 65.8 32.96 67 31.44 67.96C30 68.84 28.44 69.52 26.76 70C25.16 70.4 23.72 70.6 22.44 70.6C15.56 70.6 10.56 68.68 7.44 64.84C4.32 61 2.76 55.96 2.76 49.72C2.76 49.4 2.84 48.68 3 47.56C3.16 46.44 3.24 45.68 3.24 45.28C3.24 45.2 3.08 45.12 2.76 45.04C2.44 44.88 2.08 44.72 1.68 44.56C1.36 44.4 1.04 44.16 0.72 43.84C0.48 43.44 0.36 42.92 0.36 42.28C0.36 41.64 0.6 41.12 1.08 40.72C1.56 40.32 2.12 39.96 2.76 39.64L3.96 38.92C4.68 35.88 5.52 32.96 6.48 30.16C7.52 27.28 8.8 24.4 10.32 21.52C9.68 21.52 9 21.44 8.28 21.28C7.56 21.12 7.2 20.56 7.2 19.6C7.2 18.48 7.84 17.24 9.12 15.88C10.48 14.52 12 13.24 13.68 12.04C15.44 10.84 17.16 9.84 18.84 9.04C20.52 8.16 21.72 7.71999 22.44 7.71999C22.76 7.71999 22.96 7.79999 23.04 7.96C23.2 8.04 23.44 8.08 23.76 8.08C24.4 8.08 25.2 7.96 26.16 7.71999C27.2 7.48 28.28 7.2 29.4 6.88C30.52 6.56 31.56 6.28 32.52 6.03999C33.56 5.8 34.4 5.68 35.04 5.68C35.76 5.68 36.28 5.92 36.6 6.4C37 6.87999 37.2 7.4 37.2 7.96C37.2 8.6 36.8 9.08 36 9.4C35.2 9.64 34.48 9.84 33.84 10C31.6 10.4 29.24 11.12 26.76 12.16C24.36 13.12 22.12 14.2 20.04 15.4C19.24 16.28 18.28 17.56 17.16 19.24C16.04 20.84 14.96 22.68 13.92 24.76C12.88 26.84 11.92 29 11.04 31.24C10.24 33.48 9.72 35.6 9.48 37.6L11.52 36.64C17.68 33.68 22.68 31.36 26.52 29.68C30.44 28 33.48 27.16 35.64 27.16C36.04 27.16 36.4 27.32 36.72 27.64ZM73.0969 54.16C73.0969 55.52 72.6169 56.72 71.6569 57.76C70.7769 58.72 69.6169 59.56 68.1769 60.28C66.8169 60.92 65.2969 61.44 63.6169 61.84C61.9369 62.24 60.3369 62.56 58.8169 62.8C57.2969 62.96 55.9369 63.08 54.7369 63.16C53.6169 63.16 52.8969 63.16 52.5769 63.16C50.8169 63.16 49.4569 62.88 48.4969 62.32C47.5369 61.76 47.0569 60.76 47.0569 59.32C47.0569 58.84 47.0969 58.44 47.1769 58.12C47.2569 57.72 47.5769 57.52 48.1369 57.52C48.3769 57.52 48.7769 57.6 49.3369 57.76C49.8969 57.84 50.3369 57.88 50.6569 57.88C50.9769 57.88 51.9769 57.84 53.6569 57.76C55.4169 57.6 57.2569 57.36 59.1769 57.04C61.1769 56.72 62.9369 56.28 64.4569 55.72C66.0569 55.08 66.8569 54.28 66.8569 53.32C66.8569 53.16 66.0169 52.68 64.3369 51.88C62.7369 51 60.2969 49.56 57.0169 47.56C54.4569 45.96 52.6569 44.36 51.6169 42.76C50.5769 41.08 50.0569 38.84 50.0569 36.04C50.0569 34.28 50.4169 32.84 51.1369 31.72C51.9369 30.6 52.9769 29.72 54.2569 29.08C55.6169 28.44 57.1369 28 58.8169 27.76C60.5769 27.44 62.4169 27.28 64.3369 27.28C64.4969 27.28 64.9769 27.36 65.7769 27.52C66.6569 27.68 67.5769 27.96 68.5369 28.36C69.4969 28.68 70.3369 29.12 71.0569 29.68C71.8569 30.16 72.2569 30.72 72.2569 31.36C72.2569 31.52 72.0969 31.76 71.7769 32.08C71.5369 32.4 71.0969 33 70.4569 33.88C70.2169 33.8 69.7769 33.68 69.1369 33.52C68.5769 33.36 67.8969 33.2 67.0969 33.04C66.3769 32.8 65.6169 32.64 64.8169 32.56C64.0169 32.4 63.3769 32.32 62.8969 32.32C60.8169 32.32 59.1369 32.72 57.8569 33.52C56.5769 34.24 55.9369 35.68 55.9369 37.84C55.9369 38.88 56.3369 39.84 57.1369 40.72C58.0169 41.6 59.0969 42.44 60.3769 43.24C61.6569 43.96 63.0169 44.72 64.4569 45.52C65.9769 46.24 67.3769 47.04 68.6569 47.92C69.9369 48.8 70.9769 49.76 71.7769 50.8C72.6569 51.76 73.0969 52.88 73.0969 54.16ZM115.163 15.76C114.123 16.96 112.643 18.16 110.723 19.36C108.803 20.48 106.883 21.52 104.963 22.48C103.043 23.44 101.363 24.28 99.9225 25C98.4825 25.64 97.7625 26.08 97.7625 26.32C97.7625 26.56 97.9225 27.28 98.2425 28.48C98.5625 29.68 98.9225 31.12 99.3225 32.8C99.8025 34.4 100.283 36.08 100.763 37.84C101.243 39.6 101.643 41.16 101.963 42.52C102.123 43.32 102.323 44.36 102.563 45.64C102.803 46.92 103.003 48.2 103.163 49.48C103.403 50.76 103.603 51.92 103.763 52.96C103.923 53.92 104.003 54.44 104.003 54.52C104.003 55.72 103.803 56.96 103.403 58.24C103.003 59.52 102.363 60.16 101.483 60.16C101.003 60.16 100.563 59.96 100.163 59.56C99.7625 59.16 99.4025 58.72 99.0825 58.24C98.7625 57.68 98.5225 57.16 98.3625 56.68C98.2025 56.2 98.1225 55.84 98.1225 55.6C98.1225 55.44 98.1225 55.2 98.1225 54.88C98.2025 54.56 98.2425 54.2 98.2425 53.8C98.2425 52.28 98.0025 50.08 97.5225 47.2C97.3625 46.32 97.0425 44.96 96.5625 43.12C96.0825 41.28 95.6025 39.4 95.1225 37.48C94.5625 35.24 93.9225 32.8 93.2025 30.16C92.8825 29.04 92.6825 28.48 92.6025 28.48C92.0425 28.48 91.0825 28.84 89.7225 29.56C88.4425 30.2 86.9625 31.04 85.2825 32.08C83.6025 33.04 81.8425 34.12 80.0025 35.32C78.1625 36.44 76.4425 37.52 74.8425 38.56C73.2425 39.52 71.8825 40.36 70.7625 41.08C69.5625 41.72 68.8425 42.04 68.6025 42.04C67.5625 42.04 66.7225 41.68 66.0825 40.96C65.4425 40.24 65.1225 39.44 65.1225 38.56C65.1225 38.08 65.8025 37.4 67.1625 36.52C68.4425 35.56 70.0825 34.52 72.0825 33.4C74.0025 32.28 76.1225 31.12 78.4425 29.92C80.6825 28.72 82.7625 27.64 84.6825 26.68C86.6825 25.72 88.3225 24.92 89.6025 24.28C90.9625 23.64 91.6425 23.32 91.6425 23.32C90.9225 19.64 90.3225 16.36 89.8425 13.48C89.4425 11 89.0425 8.72 88.6425 6.64C88.3225 4.56 88.1625 3.44 88.1625 3.27999C88.1625 2.24 88.3625 1.48 88.7625 0.999994C89.2425 0.439997 89.7625 0.159998 90.3225 0.159998C91.2025 0.159998 91.7625 0.759997 92.0025 1.96C92.8825 6.28 93.6825 10.12 94.4025 13.48C95.2025 16.84 95.9625 19.56 96.6825 21.64C97.4025 21.48 98.6425 21.04 100.403 20.32C102.163 19.52 104.003 18.68 105.923 17.8C107.843 16.92 109.563 16.16 111.083 15.52C112.683 14.8 113.603 14.44 113.842 14.44C114.323 14.44 114.603 14.6 114.683 14.92C114.843 15.24 115.003 15.52 115.163 15.76ZM150.003 33.4C150.003 33.96 149.763 34.44 149.283 34.84C148.803 35.16 148.243 35.44 147.603 35.68C146.963 35.92 146.323 36.12 145.683 36.28C145.043 36.36 144.523 36.4 144.123 36.4C142.923 36.4 142.123 36.32 141.723 36.16C141.323 36 141.003 35.92 140.763 35.92C138.763 35.92 137.163 36.08 135.963 36.4C134.763 36.72 133.803 37.24 133.083 37.96C132.443 38.68 132.003 39.6 131.763 40.72C131.603 41.76 131.523 43.04 131.523 44.56C131.523 47.12 131.603 49.16 131.763 50.68C132.003 52.2 132.203 53.44 132.363 54.4C132.603 55.36 132.803 56.12 132.963 56.68C133.203 57.16 133.323 57.64 133.323 58.12C133.323 58.76 132.963 59.44 132.243 60.16C131.603 60.88 131.003 61.24 130.443 61.24C129.483 61.24 128.603 60.4 127.803 58.72C127.083 56.96 126.443 54.92 125.883 52.6C125.403 50.2 125.003 47.84 124.683 45.52C124.363 43.2 124.203 41.44 124.203 40.24C124.203 38.88 124.323 37.6 124.563 36.4C124.803 35.12 125.123 34.04 125.523 33.16C125.923 32.2 126.363 31.44 126.843 30.88C127.323 30.32 127.803 30.04 128.283 30.04C128.683 30.04 129.003 30.2 129.243 30.52C129.483 30.76 129.683 31.08 129.843 31.48C130.003 31.8 130.163 32.12 130.323 32.44C130.563 32.68 130.843 32.8 131.163 32.8C131.883 32.8 133.043 32.44 134.643 31.72C136.243 31 138.203 30.64 140.523 30.64C142.683 30.64 144.283 30.72 145.323 30.88C146.443 30.96 147.523 31.2 148.563 31.6C148.803 31.68 149.083 31.88 149.403 32.2C149.803 32.44 150.003 32.84 150.003 33.4ZM181.132 44.08C181.132 45.84 180.892 47.52 180.412 49.12C179.932 50.72 179.292 52.12 178.492 53.32C177.692 54.52 176.732 55.48 175.612 56.2C174.572 56.84 173.412 57.16 172.132 57.16C169.892 57.16 168.132 56.52 166.852 55.24C165.572 53.96 164.572 52.48 163.852 50.8C163.212 49.12 162.772 47.44 162.532 45.76C162.372 44 162.292 42.68 162.292 41.8C162.292 40.36 162.492 38.76 162.892 37C163.372 35.16 163.972 33.48 164.692 31.96C165.492 30.44 166.372 29.16 167.332 28.12C168.292 27.08 169.292 26.56 170.332 26.56C170.572 26.56 170.932 26.64 171.412 26.8C171.972 26.96 172.532 27.2 173.092 27.52C173.652 27.84 174.132 28.24 174.532 28.72C175.012 29.2 175.332 29.76 175.492 30.4C176.372 30.48 177.252 30.8 178.132 31.36C179.012 31.92 179.492 32.36 179.572 32.68C180.212 34.76 180.612 36.84 180.772 38.92C181.012 41 181.132 42.72 181.132 44.08ZM175.732 41.92C175.732 40.72 175.612 39.48 175.372 38.2C175.132 36.84 174.652 35.48 173.932 34.12C173.772 34.2 173.572 34.24 173.332 34.24C173.012 34.24 172.732 34.2 172.492 34.12C172.332 34.04 172.172 34 172.012 34C171.052 34 170.292 34.28 169.732 34.84C169.172 35.32 168.732 36 168.412 36.88C168.172 37.68 168.012 38.56 167.932 39.52C167.852 40.48 167.812 41.4 167.812 42.28C167.812 43.16 167.852 44.16 167.932 45.28C168.012 46.32 168.172 47.32 168.412 48.28C168.732 49.24 169.132 50.08 169.612 50.8C170.092 51.44 170.732 51.76 171.532 51.76C172.332 51.76 173.012 51.36 173.572 50.56C174.132 49.68 174.572 48.68 174.892 47.56C175.212 46.44 175.412 45.36 175.492 44.32C175.652 43.2 175.732 42.4 175.732 41.92Z" fill="white"/>
</svg>
